<svg width="55" height="33" viewBox="0 0 55 33" fill="none" xmlns="http://www.w3.org/2000/svg">
<g clip-path="url(#clip0_24_5)">
<path d="M30.2993 13.7095C31.4028 13.7095 31.9546 14.1099 31.9546 14.9106C31.9546 15.7114 31.4028 16.1118 30.2993 16.1118C30.1333 16.1118 29.9771 16.0801 29.8306 16.0166C29.689 15.9531 29.5645 15.8677 29.457 15.7603C29.3496 15.6479 29.2642 15.5186 29.2007 15.3721C29.1372 15.2256 29.1055 15.0718 29.1055 14.9106C29.1055 14.7495 29.1372 14.5957 29.2007 14.4492C29.2642 14.3027 29.3496 14.1758 29.457 14.0684C29.5645 13.9561 29.689 13.8682 29.8306 13.8047C29.9771 13.7412 30.1333 13.7095 30.2993 13.7095ZM29.6255 14.2808C29.479 14.4517 29.4058 14.6616 29.4058 14.9106C29.4058 15.0376 29.4253 15.1572 29.4644 15.2695C29.5083 15.377 29.5669 15.4722 29.6401 15.5552C29.7134 15.6333 29.7964 15.6968 29.8892 15.7456C29.9868 15.7896 30.0894 15.8115 30.1968 15.8115C30.2993 15.8115 30.3994 15.7896 30.4971 15.7456C30.5947 15.6968 30.6802 15.6333 30.7534 15.5552C30.8267 15.4722 30.8853 15.377 30.9292 15.2695C30.9731 15.1572 30.9951 15.0376 30.9951 14.9106C30.9951 14.7837 30.9731 14.6665 30.9292 14.5591C30.8853 14.4468 30.8267 14.3516 30.7534 14.2734C30.6802 14.1904 30.5947 14.127 30.4971 14.083C30.3994 14.0342 30.2993 14.0098 30.1968 14.0098C30.0942 14.0098 29.9941 14.0317 29.8965 14.0757C29.7988 14.1196 29.7085 14.188 29.6255 14.2808ZM32.5845 23.6631C31.4224 23.5557 30.8364 23.3213 30.8267 22.96C30.7778 21.4951 30.7583 19.6958 30.7681 17.562C30.729 17.4839 30.6436 17.4204 30.5117 17.3716C29.833 17.689 29.1274 17.8892 28.395 17.9722C28.3657 18.0894 28.3657 18.2041 28.395 18.3164C28.9468 18.3457 29.3667 18.4458 29.6548 18.6167C29.6987 20.438 29.6938 21.8857 29.6401 22.96C29.6304 23.3213 29.2153 23.5557 28.395 23.6631C28.3462 23.7852 28.3462 23.9048 28.395 24.022C29.7964 23.9927 31.1929 23.9927 32.5845 24.022C32.6333 23.9048 32.6333 23.7852 32.5845 23.6631ZM32.8555 23.3921C32.9336 23.6948 32.9336 23.9902 32.8555 24.2783C31.2832 24.2295 29.7085 24.2295 28.1313 24.2783C28.0483 23.9902 28.0483 23.6948 28.1313 23.3921C28.9272 23.314 29.3301 23.165 29.3398 22.9453C29.4033 21.5781 29.4082 20.1938 29.3545 18.7925C29.0273 18.6948 28.6196 18.6313 28.1313 18.6021C28.019 18.3091 28.019 17.999 28.1313 17.6719C28.8687 17.6328 29.6987 17.4131 30.6216 17.0127C31.1489 17.0518 31.542 17.2104 31.8008 17.4888C31.7812 19.8911 31.8008 21.71 31.8594 22.9453C31.874 23.165 32.2061 23.314 32.8555 23.3921ZM33.9175 16.5879C33.5464 16.4414 33.3022 16.251 33.1851 16.0166C33.4634 15.4893 33.6489 15.1353 33.7417 14.9546C33.8394 14.7739 33.9492 14.498 34.0713 14.127C34.1982 13.751 34.2861 13.3726 34.335 12.9917H39.4106H45.5117C45.6338 13.9487 46.0146 14.957 46.6543 16.0166C46.542 16.251 46.2808 16.4414 45.8706 16.5879C45.4702 15.8604 44.8794 15.2549 44.0981 14.7715C43.3218 14.2832 42.3135 14.0391 41.0732 14.0391C41.0342 15.25 41.0146 16.6855 41.0146 18.3457C41.0146 20.4648 41.0391 22.0103 41.0879 22.9819C41.0977 23.1626 41.6421 23.3066 42.7212 23.4141C42.8042 23.7266 42.7944 24.0415 42.6919 24.3589C41.1099 24.3198 40.1895 24.3003 39.9307 24.3003C39.54 24.3003 38.4463 24.3198 36.6494 24.3589C36.5273 24.022 36.5273 23.707 36.6494 23.4141C37.709 23.3066 38.2437 23.1675 38.2534 22.9966C38.3022 21.7661 38.3267 20.2158 38.3267 18.3457C38.3267 16.7832 38.3071 15.3623 38.2681 14.083C36.2368 14.3467 34.7866 15.1816 33.9175 16.5879ZM35.9902 13.7827L38.5537 13.7095C38.6025 15.3306 38.627 16.876 38.627 18.3457C38.627 20.2354 38.6025 21.7856 38.5537 22.9966C38.5439 23.3579 37.9775 23.5923 36.8545 23.6997C36.8154 23.7778 36.8154 23.8926 36.8545 24.0439C37.6846 24.0146 38.5366 24 39.4106 24C40.4507 24 41.4492 24.0146 42.4062 24.0439C42.4453 23.9561 42.4453 23.8413 42.4062 23.6997C40.7852 23.6021 39.9697 23.3677 39.96 22.9966C39.9111 21.3755 39.8867 19.8252 39.8867 18.3457C39.8867 16.4658 39.9111 14.9204 39.96 13.7095L41.0879 13.7388C43.5195 13.7974 45.1602 14.6226 46.0098 16.2144C46.1367 16.1655 46.2197 16.0996 46.2588 16.0166C45.7705 15.0205 45.2236 14.3174 44.6182 13.9072C44.0127 13.4971 43.1118 13.292 41.9155 13.292H39.4106C38.8784 13.292 38.0752 13.2896 37.001 13.2847C35.9268 13.2798 35.1284 13.2773 34.606 13.2773C34.5864 13.4434 34.5522 13.6167 34.5034 13.7974C34.4546 13.978 34.4082 14.1318 34.3643 14.2588C34.3252 14.3809 34.2568 14.5444 34.1592 14.7495C34.0664 14.9546 34.0029 15.0938 33.9688 15.167C33.9346 15.2354 33.8564 15.3867 33.7344 15.6211C33.6172 15.8555 33.5488 15.9873 33.5293 16.0166C33.5684 16.0996 33.6538 16.1655 33.7856 16.2144C34.1323 15.6431 34.4009 15.2207 34.5913 14.9473C34.7817 14.6738 35.0063 14.4126 35.2651 14.1636C35.5288 13.9097 35.7705 13.7827 35.9902 13.7827ZM48.4341 18.6753C48.6636 18.7144 48.8442 18.8047 48.9761 18.9463C49.1128 19.083 49.1812 19.2588 49.1812 19.4736C49.1812 19.7324 49.0957 19.9473 48.9248 20.1182C48.7539 20.2842 48.5293 20.3672 48.251 20.3672C47.9629 20.3672 47.7017 20.2646 47.4673 20.0596C47.2329 19.8545 47.1157 19.564 47.1157 19.188C47.1157 18.5483 47.4185 18.0308 48.0239 17.6353C48.6343 17.2397 49.4302 17.042 50.4116 17.042C51.3442 17.042 51.9985 17.23 52.3745 17.606C52.7554 17.9771 52.9458 18.6045 52.9458 19.4883V22.0518L53.4146 22.0371C53.8149 22.0664 54.0933 22.2568 54.2495 22.6084L54.0151 23.0112C53.8638 23.2407 53.7368 23.4189 53.6343 23.5459C53.5366 23.668 53.395 23.8071 53.2095 23.9634C53.0239 24.1196 52.8066 24.2319 52.5576 24.3003C52.3086 24.3687 52.0181 24.4028 51.686 24.4028C51.2759 24.4028 50.9658 24.249 50.7559 23.9414C50.2285 24.3223 49.54 24.5127 48.6904 24.5127C48.3193 24.5127 48.002 24.4541 47.7383 24.3369C47.4795 24.2246 47.2891 24.0732 47.167 23.8828C47.0498 23.6924 46.9668 23.5142 46.918 23.3481C46.8691 23.1821 46.8447 23.0137 46.8447 22.8428C46.8447 22.125 47.0864 21.5879 47.5698 21.2314C48.0532 20.875 49.0298 20.5088 50.4995 20.1328V19.3345C50.4995 18.9438 50.4165 18.6582 50.2505 18.4775C50.0894 18.2969 49.8794 18.2065 49.6206 18.2065C49.0688 18.2065 48.6733 18.3628 48.4341 18.6753ZM50.7998 20.8213V22.3521C50.3311 22.9722 49.8525 23.2822 49.3643 23.2822C49.0811 23.2822 48.8491 23.2139 48.6685 23.0771C48.4927 22.9404 48.4048 22.7476 48.4048 22.4985C48.4048 22.0981 48.5684 21.7686 48.8955 21.5098C49.2275 21.251 49.8623 21.0215 50.7998 20.8213ZM50.4995 22.2568V21.3633C49.7915 21.6221 49.4375 22.0005 49.4375 22.4985C49.4375 22.7085 49.5132 22.855 49.6646 22.938C49.9233 22.8452 50.2017 22.6182 50.4995 22.2568ZM48.251 19.7227C48.0801 19.7227 47.9604 19.5981 47.8921 19.3491C47.7944 18.9487 47.9141 18.5996 48.251 18.3018C48.583 18.0088 49.0835 17.8623 49.7524 17.8623C50.0698 17.8623 50.3237 17.9868 50.5142 18.2358C50.7046 18.48 50.7998 18.8462 50.7998 19.3345V20.3525C49.3594 20.7236 48.3901 21.0752 47.8921 21.4072C47.394 21.7344 47.145 22.2129 47.145 22.8428C47.145 23.1748 47.2573 23.4873 47.4819 23.7803C47.7065 24.0684 48.1094 24.2124 48.6904 24.2124C48.9199 24.2124 49.1348 24.1758 49.335 24.1025C49.54 24.0293 49.75 23.9121 49.9648 23.751C50.1846 23.585 50.3188 23.48 50.3677 23.436C50.4165 23.3921 50.4971 23.3164 50.6094 23.209C50.7266 23.0967 50.79 23.0356 50.7998 23.0259C50.8633 23.7437 51.1587 24.1025 51.686 24.1025C51.8179 24.1025 51.9692 24.0684 52.1401 24C52.311 23.9316 52.4819 23.7974 52.6528 23.5972C52.8286 23.397 52.9385 23.2651 52.9824 23.2017C53.0312 23.1333 53.1021 23.0283 53.1948 22.8867C53.2876 22.7402 53.356 22.6401 53.3999 22.5864C53.3364 22.4497 53.2144 22.3716 53.0337 22.3521C52.7651 22.7622 52.4917 22.9624 52.2134 22.9526C52.0132 22.9429 51.9131 22.8013 51.9131 22.5278V19.4883C51.9131 18.707 51.7593 18.1553 51.4517 17.833C51.1489 17.5059 50.6265 17.3423 49.8843 17.3423C49.2153 17.3423 48.6343 17.5156 48.1411 17.8623C47.6528 18.2041 47.4087 18.646 47.4087 19.188C47.4087 19.4663 47.4941 19.6836 47.665 19.8398C47.8359 19.9912 48.0312 20.0669 48.251 20.0669C48.3193 19.9692 48.3193 19.8545 48.251 19.7227Z" fill="#D9D187"/>
<path d="M18.582 31.8008C20.5612 31.8008 22.5859 31.3516 24.6562 30.4531C26.7396 29.5417 28.3867 28.207 29.5977 26.4492C29.5977 26.2799 29.5195 26.1367 29.3633 26.0195C29.2201 25.9023 29.0573 25.8438 28.875 25.8438C26.9219 28.2135 24.0508 29.3984 20.2617 29.3984C16.2643 29.3984 13.2435 28.194 11.1992 25.7852C9.16797 23.3633 8.15234 20.3555 8.15234 16.7617C8.15234 15.1341 8.32812 13.5651 8.67969 12.0547C9.04427 10.5312 9.60417 9.07943 10.3594 7.69922C11.1276 6.30599 12.2148 5.17969 13.6211 4.32031C15.0404 3.46094 16.694 3.03125 18.582 3.03125C19.8711 3.03125 21.0625 3.23307 22.1562 3.63672C23.25 4.04036 24.1484 4.51562 24.8516 5.0625C25.5547 5.60938 26.2383 6.34505 26.9023 7.26953C27.5794 8.18099 28.0872 8.97526 28.4258 9.65234C28.7773 10.3164 29.194 11.1628 29.6758 12.1914C30.0664 12.1393 30.3073 11.9961 30.3984 11.7617C29.4349 7.89453 27.9766 5.24479 26.0234 3.8125C24.0833 2.36719 21.6029 1.64453 18.582 1.64453C17.3581 1.64453 16.1081 1.79427 14.832 2.09375C13.556 2.38021 12.2409 2.90104 10.8867 3.65625C9.54557 4.39844 8.36068 5.32292 7.33203 6.42969C6.30339 7.52344 5.45703 8.96875 4.79297 10.7656C4.12891 12.5495 3.79688 14.5482 3.79688 16.7617C3.79688 18.9753 4.12891 20.974 4.79297 22.7578C5.45703 24.5417 6.30339 25.9805 7.33203 27.0742C8.36068 28.168 9.54557 29.0859 10.8867 29.8281C12.2409 30.5573 13.556 31.0651 14.832 31.3516C16.1081 31.651 17.3581 31.8008 18.582 31.8008ZM29.1875 13.0703C28.6276 11.8203 28.1133 10.7917 27.6445 9.98438C27.1758 9.16406 26.5508 8.2526 25.7695 7.25C24.9883 6.23438 24.0573 5.44661 22.9766 4.88672C21.8958 4.32682 20.6849 3.98828 19.3438 3.87109C17.8594 3.98828 16.5638 4.46354 15.457 5.29688C14.3503 6.11719 13.4909 7.17188 12.8789 8.46094C12.2799 9.75 11.8372 11.0911 11.5508 12.4844C11.2773 13.8646 11.1406 15.2904 11.1406 16.7617C11.1406 20.043 11.9674 22.7969 13.6211 25.0234C15.2747 27.25 17.7422 28.4414 21.0234 28.5977C24.2005 28.4414 26.694 27.2565 28.5039 25.043C29.0117 25.043 29.4544 25.2122 29.832 25.5508C30.2096 25.8763 30.3984 26.2669 30.3984 26.7227C29.0833 28.6367 27.306 30.0951 25.0664 31.0977C22.8268 32.1003 20.6654 32.6016 18.582 32.6016C17.2799 32.6016 15.9583 32.4453 14.6172 32.1328C13.2891 31.8333 11.9089 31.2995 10.4766 30.5312C9.05729 29.75 7.80078 28.7799 6.70703 27.6211C5.61328 26.4622 4.72135 24.9453 4.03125 23.0703C3.34115 21.1823 2.99609 19.0794 2.99609 16.7617C2.99609 14.3398 3.35417 12.1784 4.07031 10.2773C4.78646 8.36328 5.70443 6.83333 6.82422 5.6875C7.94401 4.54167 9.2526 3.59115 10.75 2.83594C12.2474 2.06771 13.6992 1.54688 15.1055 1.27344C16.5247 0.986979 17.9505 0.84375 19.3828 0.84375C21.3359 0.84375 23.4583 1.10417 25.75 1.625C28.0417 2.14583 29.6823 2.47135 30.6719 2.60156C30.2422 4.28125 30.0729 5.75911 30.1641 7.03516C30.2552 8.29818 30.6263 9.84766 31.2773 11.6836C30.8997 12.4518 30.2031 12.9141 29.1875 13.0703Z" fill="#E2D280"/>
</g>
<defs>
<clipPath id="clip0_24_5">
<rect width="55" height="33" fill="white"/>
</clipPath>
</defs>
</svg>

